<?xml version="1.0" encoding="utf-8"?>
<!-- Generator: Adobe Illustrator 14.0.0, SVG Export Plug-In . SVG Version: 6.00 Build 43363)  -->
<!DOCTYPE svg PUBLIC "-//W3C//DTD SVG 1.1//EN" "http://www.w3.org/Graphics/SVG/1.1/DTD/svg11.dtd">
<svg version="1.1" id="Layer_1" xmlns="http://www.w3.org/2000/svg" xmlns:xlink="http://www.w3.org/1999/xlink" x="0px" y="0px"
	 width="1215px" height="643px" viewBox="0 0 1215 643" enable-background="new 0 0 1215 643" xml:space="preserve">
<path fill="#4A7637" d="M885.008,359.977c0,35.149-13.219,69.679-38.325,100.12v-42.908c25.106-30.44,38.325-64.973,38.325-100.122
	V359.977z"/>
<path fill="#4A7637" d="M598.946,166.885c118.491,0,214.547,67.239,214.547,150.182v42.91c0-82.943-96.057-150.183-214.547-150.183
	V166.885z"/>
<path fill="#6AA84F" d="M598.946,116.824c102.2,0,196.636,38.166,247.737,100.122c51.099,61.956,51.099,138.289,0,200.243
	l-61.934-25.029c38.324-46.469,38.324-103.716,0-150.184c-38.326-46.467-109.153-75.091-185.803-75.091V116.824z"/>
<path fill="#B39847" d="M846.682,460.097c-9.994,12.119-21.776,23.47-35.151,33.868v-42.908
	c13.375-10.4,25.157-21.749,35.151-33.868V460.097z"/>
<path fill="#FFD966" d="M846.682,417.188c-9.994,12.119-21.776,23.468-35.151,33.868l-53.147-33.498
	c10.031-7.797,18.868-16.313,26.365-25.399L846.682,417.188z"/>
<path fill="#A98823" d="M811.531,493.965c-40.424,31.426-94.019,53.087-153.11,61.878v-42.908
	c59.092-8.792,112.687-30.452,153.11-61.878V493.965z"/>
<path fill="#F1C232" d="M811.531,451.057c-40.424,31.426-94.019,53.086-153.11,61.878l-14.868-48.967
	c44.317-6.595,84.514-22.839,114.831-46.409L811.531,451.057z"/>
<path fill="#B39847" d="M658.421,555.843c-19.553,2.91-39.486,4.378-59.475,4.378v-42.91c19.989,0,39.922-1.466,59.475-4.376
	V555.843z"/>
<path fill="#FFD966" d="M658.421,512.935c-19.553,2.91-39.486,4.376-59.475,4.376v-50.063c14.991,0,29.942-1.099,44.607-3.28
	L658.421,512.935z"/>
<path fill="#B39847" d="M554.339,170.166c14.665-2.182,29.616-3.281,44.607-3.281v42.909c-14.991,0-29.942,1.101-44.607,3.282
	V170.166z"/>
<path fill="#FFD966" d="M539.469,121.2c19.552-2.909,39.486-4.375,59.476-4.375v50.061c-14.991,0-29.942,1.099-44.607,3.281
	L539.469,121.2z"/>
<path fill="#A98823" d="M439.507,216.575c30.316-23.568,70.515-39.814,114.832-46.409v42.91
	c-44.317,6.594-84.516,22.84-114.832,46.409V216.575z"/>
<path fill="#F1C232" d="M386.361,183.079c40.422-31.425,94.02-53.086,153.108-61.879l14.869,48.966
	c-44.317,6.595-84.516,22.841-114.832,46.409L386.361,183.079z"/>
<path fill="#B39847" d="M413.144,241.976c7.495-9.088,16.331-17.601,26.363-25.4v42.91c-10.032,7.798-18.868,16.312-26.363,25.4
	V241.976z"/>
<path fill="#FFD966" d="M351.209,216.946c9.995-12.118,21.776-23.468,35.152-33.867l53.146,33.497
	c-10.032,7.799-18.868,16.313-26.363,25.4L351.209,216.946z"/>
<path fill="#4A7637" d="M598.946,560.221c-157.988,0-286.063-89.652-286.063-200.244v-42.91
	c0,110.591,128.074,200.244,286.063,200.244V560.221z"/>
<path fill="#4A7637" d="M384.4,317.067c0-26.362,9.913-52.261,28.744-75.091v42.91c-18.831,22.831-28.744,48.729-28.744,75.091
	V317.067z"/>
<path fill="#6AA84F" d="M598.946,517.311c-102.2,0-196.636-38.166-247.737-100.122c-51.1-61.954-51.1-138.287,0-200.243
	l61.935,25.03c-38.325,46.467-38.325,103.715,0,150.184c38.324,46.466,109.153,75.089,185.802,75.089V517.311z"/>
<path fill="#9E9E9E" d="M837.721,221.952c0-1.892-1.534-3.427-3.427-3.427s-3.428,1.535-3.428,3.427s1.535,3.427,3.428,3.427
	S837.721,223.844,837.721,221.952"/>
<path fill="none" stroke="#757575" stroke-miterlimit="10" d="M32.15,170.663h302.716h145.983"/>
<path fill="#9E9E9E" d="M482.849,170.663c0-1.104-0.896-2-2-2c-1.105,0-2,0.896-2,2s0.895,2,2,2
	C481.954,172.663,482.849,171.768,482.849,170.663"/>
<path fill="none" stroke="#757575" stroke-miterlimit="10" d="M32.15,412.875h302.716h53.269"/>
<path fill="#9E9E9E" d="M390.135,412.875c0-1.105-0.896-2-2-2c-1.105,0-2,0.895-2,2c0,1.104,0.895,2,2,2
	C389.239,414.875,390.135,413.979,390.135,412.875"/>
<path fill="none" stroke="#757575" stroke-miterlimit="10" d="M1182.849,235.563H880.134h-53.269"/>
<path fill="#9E9E9E" d="M828.865,235.563c0-1.104-0.895-2-2-2c-1.104,0-2,0.896-2,2s0.896,2,2,2
	C827.97,237.563,828.865,236.668,828.865,235.563"/>
<path fill="none" stroke="#757575" stroke-miterlimit="10" d="M1182.849,477.775H880.134H734.15"/>
<path fill="#9E9E9E" d="M736.15,477.775c0-1.104-0.895-2-2-2c-1.104,0-2,0.896-2,2s0.896,2,2,2
	C735.256,479.775,736.15,478.88,736.15,477.775"/>
<text transform="matrix(1 0 0 1 28.8167 207.5913)" font-family="'ArialMT'" font-size="36">300° - 360°</text>
<text transform="matrix(1 0 0 1 1041.9783 277.5581)" font-family="'ArialMT'" font-size="36">0° - 120°</text>
<text transform="matrix(1 0 0 1 1001.9353 516.1914)" font-family="'ArialMT'" font-size="36">120° - 180°</text>
<text transform="matrix(1 0 0 1 28.8167 449.2285)" font-family="'ArialMT'" font-size="36">180° - 300°</text>
<text transform="matrix(1 0 0 1 251.4036 42.7939)" font-family="'ArialMT'" font-size="36">The Moon’s Path in Relation to Fasting Days</text>
<text transform="matrix(1 0 0 1 28.8167 114.7124)"><tspan x="0" y="0" font-family="'ArialMT'" font-size="36">Start of Ekádashii</tspan><tspan x="0" y="43.2" font-family="'ArialMT'" font-size="36">until New Moon</tspan></text>
<text transform="matrix(1 0 0 1 934.7341 176.6978)"><tspan x="0" y="0" font-family="'ArialMT'" font-size="36">New Moon until</tspan><tspan x="-34.031" y="43.2" font-family="'ArialMT'" font-size="36">Start of Ekádashii</tspan></text>
<text transform="matrix(1 0 0 1 900.7029 421.0059)"><tspan x="0" y="0" font-family="'ArialMT'" font-size="36">Start of Ekádashii</tspan><tspan x="48.041" y="43.199" font-family="'ArialMT'" font-size="36">until Full Moon</tspan></text>
<text transform="matrix(1 0 0 1 28.8167 359.6406)"><tspan x="0" y="0" font-family="'ArialMT'" font-size="36">Full Moon until</tspan><tspan x="0" y="43.2" font-family="'ArialMT'" font-size="36">Start of Ekádashii</tspan></text>
<text transform="matrix(1 0 0 1 544.1423 225.3784)"><tspan x="0" y="0" font-family="'ArialMT'" font-size="24">New Moon</tspan><tspan x="45.885" y="28.8" font-family="'ArialMT'" font-size="24">0°</tspan></text>
<text transform="matrix(1 0 0 1 520.6208 126.7104)"><tspan x="0" y="0" font-family="'ArialMT'" font-size="24">Amávasyá</tspan><tspan x="-4.283" y="28.8" font-family="'ArialMT'" font-size="24">348° - 360°</tspan></text>
<text transform="matrix(1 0 0 1 689.9451 385.334)"><tspan x="0" y="0" font-family="'ArialMT'" font-size="24">Ekádashii</tspan><tspan x="-8.273" y="28.8" font-family="'ArialMT'" font-size="24">120° - 132°</tspan></text>
<text transform="matrix(1 0 0 1 554.5681 444.2305)"><tspan x="0" y="0" font-family="'ArialMT'" font-size="24">Full Moon</tspan><tspan x="27.867" y="28.799" font-family="'ArialMT'" font-size="24">180°</tspan></text>
<text transform="matrix(1 0 0 1 583.9998 550.377)"><tspan x="0" y="0" font-family="'ArialMT'" font-size="24">Púrńimá</tspan><tspan x="-15.621" y="28.799" font-family="'ArialMT'" font-size="24">348° - 360°</tspan></text>
<text transform="matrix(1 0 0 1 418.3186 263.4307)"><tspan x="0" y="0" font-family="'ArialMT'" font-size="24">Ekádashii</tspan><tspan x="-8.273" y="28.8" font-family="'ArialMT'" font-size="24">300° - 312°</tspan></text>
</svg>
